# xmcd
#
# Track frame offsets: 
#        150
#        12863
#        36781
#        55809
#        73705
#        95530
#        115670
#        134075
#        156965
#        196563
#        214278
#        237878
#        259838
#        276288
#
# Disc length: 3910 seconds
#
# Revision: 3
# Processed by: cddbd v1.5.2PL0 Copyright (c) Steve Scherf et al.
# Submitted via: ExactAudioCopyFreeDBPlugin 1.0
#
DISCID=c80f440e
DTITLE=Saez - J'Accuse
DYEAR=2010
DGENRE=New Age
TTITLE0=Les Anarchitectures
TTITLE1=Pilule
TTITLE2=Cigarette
TTITLE3=Des P'tits Sous
TTITLE4=Sonnez Tocsin Dans Les Campagnes
TTITLE5=J'Accuse
TTITLE6=Lula
TTITLE7=Regarder Les Filles Pleurer
TTITLE8=Regarder Les Filles Pleurer Thème
TTITLE9=Les Cours Des Lycées
TTITLE10=Les Printemps
TTITLE11=Marguerite
TTITLE12=On a Tous Une Lula
TTITLE13=Tricycle Jaune
EXTD=5th album from Damien Saez YEAR: 2010
EXTT0=
EXTT1=
EXTT2=
EXTT3=
EXTT4=
EXTT5=
EXTT6=
EXTT7=
EXTT8=
EXTT9=
EXTT10=
EXTT11=
EXTT12=
EXTT13=
PLAYORDER=
